# xmcd
#
# Track frame offsets:
#	150
#	15482
#	30561
#	48678
#	61211
#	82596
#	99668
#	118007
#	133652
#	147300
#	165220
#	189537
#	211349
#	228253
#	242571
#	256796
#	269953
#
# Disc length: 3806 seconds
#
# Revision: 0
# Processed by: cddbd v1.5.1PL2 Copyright (c) Steve Scherf et al.
# Submitted via: dBpowerAMP V4.0
#
DISCID=e20edc11
DTITLE=Mauro Moraes - Manada
DYEAR=1900
DGENRE=National Folk
TTITLE0=De Violão e Gaita
TTITLE1=A Cusco e Mangaço
TTITLE2=Lá de Fora
TTITLE3=Na Boca do Frete
TTITLE4=Mouro Negro
TTITLE5=Estância do Pessegueiro
TTITLE6=Laço, Cucharra e Grito
TTITLE7=Numa Volteada Campeira
TTITLE8=Fronteira Seca
TTITLE9=Estancieiro
TTITLE10=Com a Lida ao Tranco
TTITLE11=De vida e Tanto
TTITLE12=Aprendizado
TTITLE13=Gineteada de Basto
TTITLE14=Cascoteado
TTITLE15=A Mango e Bico de Bota
TTITLE16=Manada
EXTD=Manada, Mauro Moraes
EXTT0=
EXTT1=
EXTT2=
EXTT3=
EXTT4=
EXTT5=
EXTT6=
EXTT7=
EXTT8=
EXTT9=
EXTT10=
EXTT11=
EXTT12=
EXTT13=
EXTT14=
EXTT15=
EXTT16=
PLAYORDER=
